<?xml version="1.0" ?><!DOCTYPE svg  PUBLIC '-//W3C//DTD SVG 1.1//EN'  'http://www.w3.org/Graphics/SVG/1.1/DTD/svg11.dtd'><svg height="512px" style="enable-background:new 0 0 512 512;" version="1.1" viewBox="0 0 512 512" width="512px" xml:space="preserve" xmlns="http://www.w3.org/2000/svg" xmlns:xlink="http://www.w3.org/1999/xlink"><g id="_x31_32-android"><g><circle cx="256" cy="256" r="240" style="fill:#9CDB53;"/><g><g><path d="M147.069,217.965c-10.219,0-18.509,8.286-18.509,18.496v73.977      c0,10.21,8.29,18.494,18.509,18.494c10.216,0,18.509-8.284,18.509-18.494v-73.977      C165.578,226.251,157.285,217.965,147.069,217.965L147.069,217.965z M147.069,217.965" style="fill:#FFFFFF;"/><path d="M369.167,217.965c-10.215,0-18.506,8.286-18.506,18.496v73.977      c0,10.21,8.291,18.494,18.506,18.494c10.22,0,18.51-8.284,18.51-18.494v-73.977      C387.677,226.251,379.387,217.965,369.167,217.965L369.167,217.965z M369.167,217.965" style="fill:#FFFFFF;"/><g><path d="M184.084,330.005c0,10.211,8.291,18.495,18.51,18.495v35.918       c0,10.209,8.293,18.493,18.506,18.493c10.22,0,18.509-8.284,18.509-18.493V348.5h37.016v35.918       c0,10.209,8.293,18.493,18.513,18.493c10.213,0,18.506-8.284,18.506-18.493V348.5c10.216,0,18.51-8.284,18.51-18.495V219.038       H184.084V330.005z M184.084,330.005" style="fill:#FFFFFF;"/><path d="M304.313,142.081l16.474-19.956c3.26-3.939,2.702-9.767-1.239-13.02       c-3.96-3.237-9.771-2.701-13.032,1.238l-18.006,21.806c-9.291-4.197-19.527-6.658-30.392-6.658       c-11.014,0-21.378,2.551-30.759,6.879l-17.532-21.896c-3.199-3.981-9.011-4.642-13.008-1.444       c-3.979,3.198-4.627,9.006-1.442,13.004l16.249,20.305c-16.677,13.558-27.542,33.974-27.542,57.128h148.068       C332.152,176.166,321.156,155.638,304.313,142.081L304.313,142.081z M239.608,171.728c-5.107,0-9.253-4.142-9.253-9.247       c0-5.104,4.146-9.248,9.253-9.248c5.112,0,9.257,4.144,9.257,9.248C248.865,167.586,244.721,171.728,239.608,171.728       L239.608,171.728z M276.624,171.728c-5.107,0-9.252-4.142-9.252-9.247c0-5.104,4.145-9.248,9.252-9.248       c5.11,0,9.256,4.144,9.256,9.248C285.88,167.586,281.734,171.728,276.624,171.728L276.624,171.728z M276.624,171.728" style="fill:#FFFFFF;"/></g></g></g></g><linearGradient gradientUnits="userSpaceOnUse" id="SVGID_1_" x1="256" x2="256" y1="39.5459" y2="472.4546"><stop offset="0" style="stop-color:#FFFFFF"/><stop offset="0.1413" style="stop-color:#FFFFFF;stop-opacity:0.8587"/><stop offset="1" style="stop-color:#FFFFFF;stop-opacity:0"/></linearGradient><circle cx="256" cy="256.001" r="216.455" style="fill:url(#SVGID_1_);"/></g><g id="Layer_1"/></svg>