<?xml version="1.0" ?><!DOCTYPE svg  PUBLIC '-//W3C//DTD SVG 1.1//EN'  'http://www.w3.org/Graphics/SVG/1.1/DTD/svg11.dtd'><svg height="126.998px" style="enable-background:new 0 0 104.998 126.998;" version="1.1" viewBox="0 0 104.998 126.998" width="104.998px" xml:space="preserve" xmlns="http://www.w3.org/2000/svg" xmlns:xlink="http://www.w3.org/1999/xlink"><g id="IOS"><path d="   M50.06,25.409c1.033-7.363,6.432-20.495,24.691-23.91c0,0,7.375,20.612-22.129,30.091c0,0-4.15,1.495-6.557,1.072   c-13.457-3.446-25.92-3.439-34.949,6.992c-7.977,9.35-9.617,20.643-9.617,32.891c0,23.375,12.961,43.465,31.512,52.27   c6.443,3.059,13.561-5.135,21.045-5.135c7.547,0,14.723,8.164,21.211,5.055c13.072-6.264,23.348-18.143,28.232-32.816   c-6.416-2.635-14.818-14.58-16.455-23.34c-2.219-11.848,2.049-18.237,10.234-28.483c-7.787-12.189-24.629-13.296-33.814-6.356   c-2.953,1.87-5.105,4.188-9.408,4.343" style="fill:none;stroke:#000000;stroke-width:2.9982;stroke-linecap:round;stroke-linejoin:round;stroke-miterlimit:10;"/></g><g id="Layer_1"/></svg>